<svg xmlns="http://www.w3.org/2000/svg" viewBox="0 0 373.44 148.62"><defs><style>.cls-1{fill:#fff;}.cls-2{fill:#ebebeb;}.cls-3{fill:#6e5541;}.cls-4{fill:#fff0d1;}.cls-5{fill:#f5e0b3;}.cls-6{fill:#448cbc;}.cls-7{fill:#32688c;}.cls-8{fill:#2b5978;}.cls-9{opacity:0.5;}</style></defs><title>boat</title><g id="OBJECTS"><path class="cls-1" d="M311.82,76.27c2.39,9.36-14.94,17.21-23.37,17.21H50.85c-8.43,0-13.26-7.85-10.87-17.21L51.2,32.37c1.93-7.55,9.31-13.49,16.55-13.49h190.5c7.23,0,11.92,7.22,16.54,13.49C287.63,49.8,311.82,76.27,311.82,76.27Z"/><path class="cls-2" d="M304.28,67.86a32.09,32.09,0,0,1-10.1,2H41.6L40,76.27c-2.39,9.36,2.44,17.21,10.87,17.21h237.6c8.43,0,25.76-7.85,23.37-17.21C311.82,76.27,308.77,72.93,304.28,67.86Z"/><path class="cls-3" d="M65.14,123.06a4.68,4.68,0,0,0-6.39-1.74L36,134.31a4.53,4.53,0,0,0-1.35,1.18c.94.16,1.89.33,2.83.51a45.87,45.87,0,0,1,10.36,2.33l15.52-8.88A4.67,4.67,0,0,0,65.14,123.06Z"/><path class="cls-4" d="M7.35,77.05c10.37,19.2,11,45.77,52.71,62.86a2.27,2.27,0,0,1,.86-.17c15.62,0,31.18.26,46.35,3.37,1-.2,1.9-.38,2.86-.55,9.15-1.6,17.54,2.46,26.56,2.76,11.29.38,22.26-2,33.46-2.92s22,1.09,33.16.53c12-.59,23.91-2.43,35.91-2.66a99.28,99.28,0,0,1,16.18.59c2.48,0,5-.44,5.8-.44,14.92-.09,30.13-2.19,45.22-2.94,38.83-17.11,52.36-42.11,62.26-60.43Z"/><path class="cls-5" d="M345.51,110.84A128.55,128.55,0,0,0,365,83.8H10.56c3.62,8.48,6.57,17.88,12.35,27Z"/><path class="cls-5" d="M165.18,132.46c-51.05,0-98.4-5.52-137.45-14.93,6.76,8.2,16.64,16,32.32,22.38a2.32,2.32,0,0,1,.87-.17c15.62,0,31.18.26,46.35,3.37,1-.2,1.9-.38,2.86-.55,9.15-1.6,17.54,2.46,26.56,2.76,11.29.38,22.26-2,33.46-2.92s22,1.09,33.16.53c12-.59,23.91-2.43,35.91-2.66a99.28,99.28,0,0,1,16.18.59c2.48,0,5-.44,5.8-.44,14.92-.09,30.13-2.19,45.22-2.94C330,127.09,344.24,113.8,354,100.85,309.61,120.12,241.53,132.46,165.18,132.46Z"/><path class="cls-6" d="M272.15,28.77h-30.6L257.12,62.9s27.79,6.39,45.72,3.34Z"/><path class="cls-6" d="M41.69,68.53A190.23,190.23,0,0,0,66.51,65.6l9-31.83H50.84Z"/><path class="cls-6" d="M225.16,62.9s3.89,4.17,13.89,4.17c8.06,0,9.45-4.17,9.45-4.17L234.88,28.77h-21.4Z"/><path class="cls-6" d="M193.78,62.9s3.41,4.17,13.41,4.17c8.06,0,9.94-4.17,9.94-4.17l-9.66-34.13h-21.4Z"/><path class="cls-6" d="M160.75,62.9s2.86,4.17,12.86,4.17c8.06,0,10.49-4.17,10.49-4.17l-5.16-34.13h-21.4Z"/><path class="cls-6" d="M145.56,47.92a15.3,15.3,0,1,1-15.3-15.31A15.3,15.3,0,0,1,145.56,47.92Z"/><path class="cls-6" d="M101.51,47.92A10.67,10.67,0,1,1,90.85,37.25,10.66,10.66,0,0,1,101.51,47.92Z"/><polygon class="cls-7" points="356.09 104.08 15.26 104.08 7.35 77.05 373.44 77.05 356.09 104.08"/><polygon class="cls-8" points="11.31 90.56 15.26 104.08 356.09 104.08 364.77 90.56 11.31 90.56"/><g class="cls-9"><polygon class="cls-1" points="250.17 30.91 248.37 30.91 245.97 33.31 246.54 34.54 250.17 30.91"/><path class="cls-1" d="M262.35,30.91h-6.13l-7.79,7.78,1.92,4.22Z"/><path class="cls-1" d="M281.62,43.71,281,42.9,262.12,61.74l1.24.23Z"/><path class="cls-1" d="M274.42,63.7l1.21.15L288,51.49l-.61-.75Z"/><path class="cls-1" d="M282.31,64.53c3.08.24,6.23.4,9.32.4h0c2.55,0,4.93-.11,7.12-.31l-7.45-9.09Z"/><path class="cls-1" d="M254.6,52.22l2,4.47,19.58-19.58-2.93-3.57Z"/><path class="cls-1" d="M59.93,35.91H52.49L49.83,46Q54.89,41,59.93,35.91Z"/><path class="cls-1" d="M70.1,45.06l.76-2.7L47.19,66l2.1-.19Q59.75,55.51,70.1,45.06Z"/><path class="cls-1" d="M65.67,60.74l2-7.21Q62,59.31,56.17,65.06c2.35-.31,4.4-.62,6-.88Z"/><path class="cls-1" d="M71.26,35.91H66L47.67,54.22l-1.89,7.17Z"/><path class="cls-1" d="M216.52,31l1.21,3.54,3.67-3.67h-4.75Z"/><polygon class="cls-1" points="238.21 42.87 237.69 41.59 224.6 54.68 225.06 56.02 238.21 42.87"/><path class="cls-1" d="M229.93,63.32l11.75-11.74-1.75-4.39L226.6,60.52l.4,1.16A11.91,11.91,0,0,0,229.93,63.32Z"/><path class="cls-1" d="M242.17,64.65a6.73,6.73,0,0,0,4-1.94l-.57-1.44Z"/><path class="cls-1" d="M230.55,30.91h-3.1l-8.18,8.18.79,2.31Z"/><polygon class="cls-1" points="197 30.91 191.71 30.91 189.29 33.33 190.26 37.64 197 30.91"/><path class="cls-1" d="M193.89,53.7l.87,3.85L209.28,43l-1-3.7Q201.05,46.52,193.89,53.7Z"/><path class="cls-1" d="M211.3,50.16l-.68-2.42L196.19,62.17a11,11,0,0,0,2,1.12Z"/><path class="cls-1" d="M164.69,63.22l15-15L179,43.6,162.62,60l.19,2A8.43,8.43,0,0,0,164.69,63.22Z"/><path class="cls-1" d="M174.77,30.91h-9.21l-5.19,5.18.8,8.42Q168,37.7,174.77,30.91Z"/><path class="cls-1" d="M161.69,50l.41,4.43,16.12-16.12-.63-4.21Z"/><path class="cls-1" d="M132,34.88a14.25,14.25,0,0,0-1.74-.13A13.18,13.18,0,0,0,117.1,47.92a12.5,12.5,0,0,0,.13,1.74Z"/><path class="cls-1" d="M129,61l.44.05,14-14a3.12,3.12,0,0,0-.05-.44Z"/><path class="cls-1" d="M137.71,58.76a13.24,13.24,0,0,0,3.4-3.4Z"/><path class="cls-1" d="M121,57.24l18.6-18.6a13.37,13.37,0,0,0-3-2.27L118.71,54.22A13.21,13.21,0,0,0,121,57.24Z"/><path class="cls-1" d="M85.17,54.26l12-12a8.54,8.54,0,0,0-4.27-2.59C89.47,43.1,86,46.55,82.58,50A8.57,8.57,0,0,0,85.17,54.26Z"/><path class="cls-1" d="M92.81,56.21l6.33-6.33a8.48,8.48,0,0,0,.23-2,8.88,8.88,0,0,0-.16-1.65q-5,5-10,10a8.88,8.88,0,0,0,1.65.16A8.48,8.48,0,0,0,92.81,56.21Z"/></g></g></svg>