<?xml version="1.0" encoding="iso-8859-1"?>
<!-- Generator: Adobe Illustrator 19.0.0, SVG Export Plug-In . SVG Version: 6.00 Build 0)  -->
<svg version="1.1" id="Layer_1" xmlns="http://www.w3.org/2000/svg" xmlns:xlink="http://www.w3.org/1999/xlink" x="0px" y="0px"
	 viewBox="0 0 510.669 510.669" style="enable-background:new 0 0 510.669 510.669;" xml:space="preserve">
<g>
	<path style="fill:#FFD46A;" d="M460.401,84.795H296.639v361.148h163.763V84.795H460.401z M355.822,381.886h-28.371
		c-6.71,0-12.15-5.439-12.15-12.15s5.44-12.15,12.15-12.15h28.371c6.71,0,12.15,5.439,12.15,12.15S362.532,381.886,355.822,381.886z
		 M355.822,321.9h-28.371c-6.71,0-12.15-5.439-12.15-12.15s5.44-12.15,12.15-12.15h28.371c6.71,0,12.15,5.439,12.15,12.15
		S362.532,321.9,355.822,321.9z M355.822,261.915h-28.371c-6.71,0-12.15-5.439-12.15-12.15s5.44-12.15,12.15-12.15h28.371
		c6.71,0,12.15,5.439,12.15,12.15S362.532,261.915,355.822,261.915z M355.822,201.929h-28.371c-6.71,0-12.15-5.439-12.15-12.15
		s5.44-12.15,12.15-12.15h28.371c6.71,0,12.15,5.439,12.15,12.15S362.532,201.929,355.822,201.929z M355.822,141.943h-28.371
		c-6.71,0-12.15-5.439-12.15-12.15s5.44-12.15,12.15-12.15h28.371c6.71,0,12.15,5.439,12.15,12.15S362.532,141.943,355.822,141.943z
		 M429.589,381.886h-28.372c-6.71,0-12.15-5.439-12.15-12.15s5.44-12.15,12.15-12.15h28.372c6.71,0,12.15,5.439,12.15,12.15
		S436.299,381.886,429.589,381.886z M429.589,321.9h-28.372c-6.71,0-12.15-5.439-12.15-12.15s5.44-12.15,12.15-12.15h28.372
		c6.71,0,12.15,5.439,12.15,12.15S436.299,321.9,429.589,321.9z M429.589,261.915h-28.372c-6.71,0-12.15-5.439-12.15-12.15
		s5.44-12.15,12.15-12.15h28.372c6.71,0,12.15,5.439,12.15,12.15S436.299,261.915,429.589,261.915z M429.589,201.929h-28.372
		c-6.71,0-12.15-5.439-12.15-12.15s5.44-12.15,12.15-12.15h28.372c6.71,0,12.15,5.439,12.15,12.15S436.299,201.929,429.589,201.929z
		 M429.589,141.943h-28.372c-6.71,0-12.15-5.439-12.15-12.15s5.44-12.15,12.15-12.15h28.372c6.71,0,12.15,5.439,12.15,12.15
		S436.299,141.943,429.589,141.943z"/>
	<path style="fill:#4CC7BB;" d="M121.9,394.353c4.744,4.745,4.744,12.438,0,17.183l-34.408,34.408h62.745l36.203-36.204
		c4.746-4.745,12.438-4.745,17.183,0s4.745,12.438,0.001,17.183l-19.021,19.021h50.903V216.115H71.743v112.408l17.396-17.396
		c4.746-4.745,12.438-4.745,17.183,0c4.745,4.745,4.745,12.438,0.001,17.183l-34.579,34.58v64.437l32.974-32.974
		C109.463,389.607,117.154,389.607,121.9,394.353z M177.132,237.615h28.372c6.71,0,12.15,5.439,12.15,12.15s-5.44,12.15-12.15,12.15
		h-28.372c-6.71,0-12.15-5.439-12.15-12.15S170.422,237.615,177.132,237.615z M177.132,297.601h28.372
		c6.71,0,12.15,5.439,12.15,12.15s-5.44,12.15-12.15,12.15h-28.372c-6.71,0-12.15-5.439-12.15-12.15
		S170.422,297.601,177.132,297.601z M177.132,357.586h28.372c6.71,0,12.15,5.439,12.15,12.15s-5.44,12.15-12.15,12.15h-28.372
		c-6.71,0-12.15-5.439-12.15-12.15S170.422,357.586,177.132,357.586z M103.366,261.915c-6.71,0-12.15-5.439-12.15-12.15
		s5.44-12.15,12.15-12.15h28.371c6.71,0,12.15,5.439,12.15,12.15s-5.44,12.15-12.15,12.15H103.366z"/>
	<g>
		<path d="M498.52,460.208H12.15c-6.71,0-12.15-5.439-12.15-12.15s5.439-12.15,12.15-12.15h24.328v-88.064c0-0.015,0-0.029,0-0.044
			v-153.87c0-6.71,5.439-12.15,12.15-12.15h188.063c6.71,0,12.15,5.439,12.15,12.15V435.91h12.532V62.61
			c0-6.71,5.44-12.15,12.15-12.15h188.063c6.71,0,12.15,5.439,12.15,12.15v373.298h24.783c6.71,0,12.15,5.439,12.15,12.15
			S505.229,460.208,498.52,460.208z M285.674,435.908h163.762V74.76H285.674V435.908z M173.638,435.908h50.903V206.08H60.778
			v112.409l17.396-17.396c4.745-4.745,12.438-4.745,17.183,0c4.745,4.745,4.745,12.438,0,17.183l-34.579,34.58v64.437l32.974-32.974
			c4.745-4.745,12.438-4.745,17.183,0c4.745,4.745,4.745,12.438,0,17.183L76.527,435.91h62.746l36.204-36.204
			c4.745-4.745,12.438-4.745,17.183,0s4.745,12.438,0,17.183L173.638,435.908z M418.624,371.851h-28.372
			c-6.71,0-12.15-5.439-12.15-12.15s5.44-12.15,12.15-12.15h28.372c6.71,0,12.15,5.439,12.15,12.15S425.334,371.851,418.624,371.851
			z M344.857,371.851h-28.371c-6.71,0-12.15-5.439-12.15-12.15s5.44-12.15,12.15-12.15h28.371c6.71,0,12.15,5.439,12.15,12.15
			S351.567,371.851,344.857,371.851z M194.539,371.851h-28.372c-6.71,0-12.15-5.439-12.15-12.15s5.439-12.15,12.15-12.15h28.372
			c6.71,0,12.15,5.439,12.15,12.15S201.249,371.851,194.539,371.851z M418.624,311.865h-28.372c-6.71,0-12.15-5.439-12.15-12.15
			s5.44-12.15,12.15-12.15h28.372c6.71,0,12.15,5.439,12.15,12.15S425.334,311.865,418.624,311.865z M344.857,311.865h-28.371
			c-6.71,0-12.15-5.439-12.15-12.15s5.44-12.15,12.15-12.15h28.371c6.71,0,12.15,5.439,12.15,12.15S351.567,311.865,344.857,311.865
			z M194.539,311.865h-28.372c-6.71,0-12.15-5.439-12.15-12.15s5.439-12.15,12.15-12.15h28.372c6.71,0,12.15,5.439,12.15,12.15
			S201.249,311.865,194.539,311.865z M418.624,251.879h-28.372c-6.71,0-12.15-5.439-12.15-12.15s5.44-12.15,12.15-12.15h28.372
			c6.71,0,12.15,5.439,12.15,12.15S425.334,251.879,418.624,251.879z M344.857,251.879h-28.371c-6.71,0-12.15-5.439-12.15-12.15
			s5.44-12.15,12.15-12.15h28.371c6.71,0,12.15,5.439,12.15,12.15S351.567,251.879,344.857,251.879z M194.539,251.879h-28.372
			c-6.71,0-12.15-5.439-12.15-12.15s5.439-12.15,12.15-12.15h28.372c6.71,0,12.15,5.439,12.15,12.15
			S201.249,251.879,194.539,251.879z M120.772,251.879H92.401c-6.71,0-12.15-5.439-12.15-12.15s5.439-12.15,12.15-12.15h28.372
			c6.71,0,12.15,5.439,12.15,12.15S127.483,251.879,120.772,251.879z M418.624,191.894h-28.372c-6.71,0-12.15-5.439-12.15-12.15
			s5.44-12.15,12.15-12.15h28.372c6.71,0,12.15,5.439,12.15,12.15S425.334,191.894,418.624,191.894z M344.857,191.894h-28.371
			c-6.71,0-12.15-5.439-12.15-12.15s5.44-12.15,12.15-12.15h28.371c6.71,0,12.15,5.439,12.15,12.15S351.567,191.894,344.857,191.894
			z M418.624,131.908h-28.372c-6.71,0-12.15-5.439-12.15-12.15s5.44-12.15,12.15-12.15h28.372c6.71,0,12.15,5.439,12.15,12.15
			S425.334,131.908,418.624,131.908z M344.857,131.908h-28.371c-6.71,0-12.15-5.439-12.15-12.15s5.44-12.15,12.15-12.15h28.371
			c6.71,0,12.15,5.439,12.15,12.15S351.567,131.908,344.857,131.908z"/>
	</g>
</g>
<g>
</g>
<g>
</g>
<g>
</g>
<g>
</g>
<g>
</g>
<g>
</g>
<g>
</g>
<g>
</g>
<g>
</g>
<g>
</g>
<g>
</g>
<g>
</g>
<g>
</g>
<g>
</g>
<g>
</g>
</svg>
