<?xml version="1.0" encoding="iso-8859-1"?>
<!-- Generator: Adobe Illustrator 19.0.0, SVG Export Plug-In . SVG Version: 6.00 Build 0)  -->
<svg version="1.1" id="Capa_1" xmlns="http://www.w3.org/2000/svg" xmlns:xlink="http://www.w3.org/1999/xlink" x="0px" y="0px"
	 viewBox="0 0 512 512" style="enable-background:new 0 0 512 512;" xml:space="preserve">
<circle style="fill:#A67875;" cx="256" cy="256" r="248.5"/>
<path style="opacity:0.1;enable-background:new    ;" d="M418.19,67.73c37.532,43.527,60.23,100.207,60.23,162.19
	c0,137.243-111.257,248.5-248.5,248.5c-61.984,0-118.663-22.698-162.19-60.23C113.3,471.04,180.741,504.5,256,504.5
	c137.243,0,248.5-111.257,248.5-248.5C504.5,180.741,471.04,113.3,418.19,67.73z"/>
<circle style="fill:#FFFFFF;" cx="256" cy="256" r="180.96"/>
<circle style="fill:#E4E4E5;" cx="256" cy="256" r="85.75"/>
<path style="opacity:0.1;enable-background:new    ;" d="M358.7,161.059l-80.56,34.387c-8.747,3.734-14.637,12.085-15.219,21.577
	l-1.655,26.992c-8.715,1.677-15.575,8.537-17.252,17.252l-26.992,1.655c-9.493,0.582-17.844,6.472-21.577,15.219l-34.387,80.56
	c-2.98,6.981,4.07,14.031,11.051,11.051l80.56-34.387c8.747-3.734,14.637-12.085,15.219-21.577l1.655-26.991
	c8.715-1.677,15.575-8.537,17.252-17.252l26.992-1.655c9.493-0.582,17.844-6.472,21.577-15.219l34.387-80.56
	C372.731,165.129,365.681,158.079,358.7,161.059z"/>
<path style="opacity:0.1;enable-background:new    ;" d="M256,75.038c-99.943,0-180.962,81.02-180.962,180.962
	c0,55.091,24.625,104.424,63.46,137.615c-27.022-31.617-43.347-72.651-43.347-117.502c0-99.943,81.02-180.962,180.962-180.962
	c44.852,0,85.885,16.325,117.502,43.347C360.424,99.662,311.091,75.038,256,75.038z"/>
<path style="fill:#D674B6;" d="M349.295,151.654l-80.56,34.387c-8.747,3.734-14.637,12.085-15.219,21.577l-2.207,35.998
	c-0.593,9.665,7.41,17.668,17.075,17.075l35.998-2.207c9.493-0.582,17.844-6.472,21.577-15.219l34.387-80.56
	C363.326,155.724,356.276,148.674,349.295,151.654z"/>
<path style="fill:#69BFE2;" d="M151.654,349.295l34.387-80.56c3.734-8.747,12.085-14.637,21.577-15.219l35.998-2.207
	c9.665-0.593,17.668,7.41,17.075,17.075l-2.207,35.998c-0.582,9.493-6.472,17.844-15.219,21.577l-80.56,34.387
	C155.724,363.326,148.674,356.276,151.654,349.295z"/>
<circle style="fill:#445258;" cx="256" cy="256" r="21.795"/>
<g style="opacity:0.1;">
	<path d="M289.63,229.87c-1.92,0-3.839-0.732-5.304-2.197c-2.929-2.929-2.929-7.678,0-10.606l26.061-26.06
		c2.931-2.929,7.679-2.929,10.607,0c2.929,2.929,2.929,7.678,0,10.606l-26.061,26.06C293.469,229.138,291.549,229.87,289.63,229.87z
		"/>
	<path d="M196.31,323.19c-1.919,0-3.839-0.732-5.303-2.197c-2.929-2.929-2.929-7.678,0-10.607l26.06-26.06
		c2.929-2.929,7.678-2.929,10.606,0c2.929,2.929,2.929,7.678,0,10.606l-26.06,26.06C200.149,322.457,198.229,323.19,196.31,323.19z"
		/>
</g>
<path d="M437.02,74.98C388.668,26.629,324.38,0,256,0C196.574,0,138.669,20.822,92.952,58.63c-3.192,2.64-3.64,7.368-1,10.56
	s7.368,3.641,10.56,1C145.546,34.6,200.056,15,256,15c64.374,0,124.894,25.068,170.413,70.587S497,191.626,497,256
	s-25.068,124.894-70.587,170.413S320.374,497,256,497s-124.894-25.068-170.413-70.587S15,320.374,15,256
	c0-56.109,19.703-110.744,55.48-153.839c2.646-3.187,2.207-7.915-0.98-10.561c-3.187-2.646-7.916-2.208-10.561,0.98
	C20.932,138.362,0,196.399,0,256c0,68.38,26.629,132.668,74.98,181.02C123.332,485.371,187.62,512,256,512
	s132.668-26.629,181.02-74.98C485.371,388.668,512,324.38,512,256S485.371,123.332,437.02,74.98z M133.468,260.722
	c0-4.142-3.358-7.5-7.5-7.5h-22.419c-4.142,0-7.5,3.358-7.5,7.5s3.358,7.5,7.5,7.5h22.419
	C130.11,268.222,133.468,264.864,133.468,260.722z M256,429.462c-49.474,0-96.724-21.215-129.636-58.205
	c-2.754-3.095-7.494-3.371-10.588-0.618c-3.095,2.754-3.371,7.494-0.618,10.588c35.755,40.187,87.09,63.234,140.842,63.234
	c103.918,0,188.462-84.544,188.462-188.462c0-14.283-1.605-28.522-4.772-42.321c-0.927-4.037-4.951-6.558-8.987-5.632
	c-4.037,0.926-6.559,4.95-5.632,8.988c2.914,12.699,4.392,25.809,4.392,38.965C429.462,351.647,351.647,429.462,256,429.462z
	 M251.278,133.468c4.142,0,7.5-3.358,7.5-7.5v-22.419c0-4.142-3.358-7.5-7.5-7.5s-7.5,3.358-7.5,7.5v22.419
	C243.778,130.11,247.136,133.468,251.278,133.468z M386.032,258.778h22.419c4.143,0,7.5-3.358,7.5-7.5s-3.357-7.5-7.5-7.5h-22.419
	c-4.143,0-7.5,3.358-7.5,7.5C378.532,255.42,381.89,258.778,386.032,258.778z M256,67.538C152.081,67.538,67.538,152.081,67.538,256
	c0,29.096,6.455,57,19.184,82.935c1.303,2.655,3.968,4.197,6.738,4.197c1.109,0,2.236-0.247,3.299-0.768
	c3.718-1.825,5.253-6.319,3.428-10.038c-11.712-23.861-17.65-49.541-17.65-76.326c0-95.648,77.815-173.462,173.462-173.462
	c65.262,0,124.387,36.069,154.302,94.131c1.897,3.682,6.419,5.13,10.102,3.232c3.683-1.897,5.13-6.42,3.232-10.102
	C391.137,106.722,326.902,67.538,256,67.538z M260.722,378.532c-4.142,0-7.5,3.358-7.5,7.5v22.419c0,4.142,3.358,7.5,7.5,7.5
	c4.143,0,7.5-3.358,7.5-7.5v-22.419C268.222,381.89,264.864,378.532,260.722,378.532z M228.978,244.693l-21.819,1.338
	c-12.403,0.76-23.138,8.332-28.017,19.761l-34.387,80.559c-2.566,6.013-1.238,12.885,3.384,17.508
	c3.06,3.059,7.104,4.676,11.232,4.676c2.11,0,4.243-0.422,6.277-1.291l80.56-34.387c11.428-4.878,19.001-15.613,19.761-28.016
	l1.338-21.819c7.074-2.971,12.743-8.641,15.714-15.715l21.818-1.338c12.403-0.76,23.139-8.333,28.016-19.761l34.387-80.559
	c2.567-6.012,1.239-12.885-3.384-17.508c-4.622-4.624-11.495-5.952-17.509-3.386l-80.56,34.387
	c-11.428,4.878-19,15.613-19.76,28.016l-1.338,21.819C237.619,231.949,231.949,237.619,228.978,244.693z M261.003,208.077
	c0.41-6.702,4.502-12.502,10.677-15.138l80.56-34.387c0.199-0.086,0.571-0.246,1.014,0.196c0.44,0.44,0.28,0.812,0.195,1.013
	L319.06,240.32c-2.635,6.175-8.435,10.267-15.138,10.678l-18.888,1.158c-1.723-13.083-12.107-23.467-25.19-25.19L261.003,208.077z
	 M256,241.706c7.882,0,14.295,6.413,14.295,14.294s-6.413,14.294-14.295,14.294c-7.882,0-14.294-6.413-14.294-14.294
	S248.118,241.706,256,241.706z M252.156,285.034l-1.159,18.889c-0.411,6.702-4.503,12.502-10.678,15.138l-80.559,34.387
	c-0.2,0.085-0.573,0.245-1.013-0.196c-0.44-0.44-0.281-0.813-0.195-1.013l34.387-80.559c2.636-6.175,8.437-10.267,15.139-10.678
	l18.889-1.158C228.689,272.927,239.073,283.311,252.156,285.034z"/>
<g>
</g>
<g>
</g>
<g>
</g>
<g>
</g>
<g>
</g>
<g>
</g>
<g>
</g>
<g>
</g>
<g>
</g>
<g>
</g>
<g>
</g>
<g>
</g>
<g>
</g>
<g>
</g>
<g>
</g>
</svg>
