<?xml version="1.0" encoding="iso-8859-1"?>
<!-- Generator: Adobe Illustrator 19.0.0, SVG Export Plug-In . SVG Version: 6.00 Build 0)  -->
<svg version="1.1" id="Capa_1" xmlns="http://www.w3.org/2000/svg" xmlns:xlink="http://www.w3.org/1999/xlink" x="0px" y="0px"
	 viewBox="0 0 512 512" style="enable-background:new 0 0 512 512;" xml:space="preserve">
<path style="fill:#76C9D2;" d="M495.237,363.177H16.763c-5.116,0-9.263,4.147-9.263,9.263v31.968
	c0,12.518,10.148,22.666,22.666,22.666h451.668c12.518,0,22.666-10.148,22.666-22.666V372.44
	C504.5,367.324,500.353,363.177,495.237,363.177z"/>
<path style="fill:#5F666F;" d="M495.237,363.177H16.763c-5.116,0-9.263,4.147-9.263,9.263v31.968
	c0,12.518,10.148,22.666,22.666,22.666h451.668c12.518,0,22.666-10.148,22.666-22.666V372.44
	C504.5,367.324,500.353,363.177,495.237,363.177z"/>
<path style="opacity:0.1;enable-background:new    ;" d="M495.237,363.177H461.36c5.116,0,9.263,4.147,9.263,9.263v31.968
	c0,0.016,0,0.031,0,0.047c-0.005,2.5-2.108,4.492-4.609,4.492H30.166C17.648,408.948,7.5,398.8,7.5,386.282v18.127
	c0,12.518,10.148,22.666,22.666,22.666h451.668c12.518,0,22.666-10.148,22.666-22.666V372.44
	C504.5,367.324,500.353,363.177,495.237,363.177z"/>
<path style="fill:#394049;" d="M462.086,84.926H49.915c-7.736,0-14.006,6.271-14.006,14.007v264.245h440.184V98.932
	C476.092,91.197,469.821,84.926,462.086,84.926z"/>
<circle style="fill:#76C9D2;" cx="256" cy="99.97" r="6.334"/>
<path style="fill:#FFFFFF;" d="M65.997,328.895V119.208c0-2.316,1.877-4.193,4.193-4.193h371.62c2.316,0,4.193,1.877,4.193,4.193
	v209.686c0,2.316-1.877,4.193-4.193,4.193H70.19C67.874,333.088,65.997,331.21,65.997,328.895z"/>
<path style="fill:#F2DFA6;" d="M394.171,333.088H117.829V162.664c0-9.481,7.686-17.166,17.166-17.166h242.009
	c9.481,0,17.166,7.686,17.166,17.166v170.424H394.171z"/>
<path style="fill:#76C9D2;" d="M322.826,363.177H189.174v10.877c0,9.26,7.507,16.766,16.766,16.766h100.12
	c9.26,0,16.766-7.507,16.766-16.766V363.177z"/>
<path style="fill:#394049;" d="M322.826,302.543H189.175c-4.143,0-7.5-3.358-7.5-7.5c0-4.142,3.357-7.5,7.5-7.5h133.651
	c4.143,0,7.5,3.358,7.5,7.5C330.326,299.185,326.969,302.543,322.826,302.543z"/>
<path style="opacity:0.1;enable-background:new    ;" d="M462.086,84.926h-30.089c7.736,0,14.007,6.271,14.007,14.007V322.27H35.908
	v40.908h440.184V98.932C476.092,91.197,469.821,84.926,462.086,84.926z"/>
<path d="M495.237,355.677h-11.646V166.503c0-4.142-3.357-7.5-7.5-7.5s-7.5,3.358-7.5,7.5v189.174h-51.106
	c-4.143,0-7.5,3.358-7.5,7.5c0,4.142,3.357,7.5,7.5,7.5h77.752c0.972,0,1.763,0.791,1.763,1.763v31.968
	c0,8.363-6.804,15.166-15.166,15.166H30.166c-8.362,0-15.166-6.803-15.166-15.166V372.44c0-0.972,0.791-1.763,1.763-1.763h164.911
	v3.377c0,13.381,10.886,24.267,24.267,24.267H306.06c13.381,0,24.267-10.886,24.267-24.267v-3.377h49.536c4.143,0,7.5-3.358,7.5-7.5
	c0-4.142-3.357-7.5-7.5-7.5H43.408V98.932c0-3.587,2.919-6.506,6.506-6.506h412.172c3.587,0,6.506,2.919,6.506,6.506V130.5
	c0,4.142,3.357,7.5,7.5,7.5s7.5-3.358,7.5-7.5V98.932c0-11.859-9.647-21.506-21.506-21.506H49.914
	c-11.858,0-21.506,9.647-21.506,21.506v256.745H16.763C7.519,355.677,0,363.197,0,372.44v31.968
	c0,16.634,13.532,30.166,30.166,30.166h451.668c16.634,0,30.166-13.532,30.166-30.166V372.44
	C512,363.197,504.48,355.677,495.237,355.677z M196.674,370.677h118.652v3.377c0,5.109-4.157,9.267-9.267,9.267H205.94
	c-5.109,0-9.267-4.157-9.267-9.267L196.674,370.677L196.674,370.677z M65.997,294.934c-4.143,0-7.5,3.358-7.5,7.5v26.46
	c0,6.447,5.245,11.693,11.693,11.693h371.62c6.448,0,11.693-5.246,11.693-11.693V119.209c0-6.448-5.245-11.693-11.693-11.693H70.19
	c-6.448,0-11.693,5.246-11.693,11.693v146.877c0,4.142,3.357,7.5,7.5,7.5s7.5-3.358,7.5-7.5V122.515h365.006v203.072h-36.832
	V162.664c0-13.601-11.065-24.666-24.666-24.666h-242.01c-13.601,0-24.666,11.065-24.666,24.666v162.923H73.497v-23.153
	C73.497,298.292,70.14,294.934,65.997,294.934z M125.329,162.664c0-5.33,4.336-9.666,9.666-9.666h242.01
	c5.33,0,9.666,4.336,9.666,9.666v162.923H125.329V162.664z M162.269,189.329c-4.143,0-7.5,3.358-7.5,7.5v10.335
	c0,4.142,3.357,7.5,7.5,7.5s7.5-3.358,7.5-7.5v-10.335C169.769,192.687,166.411,189.329,162.269,189.329z M349.731,189.329
	c-4.143,0-7.5,3.358-7.5,7.5v10.335c0,4.142,3.357,7.5,7.5,7.5s7.5-3.358,7.5-7.5v-10.335
	C357.231,192.687,353.874,189.329,349.731,189.329z M278.169,210.636c-3.792-1.668-8.218,0.053-9.886,3.844
	c-2.144,4.869-6.965,8.016-12.283,8.016c-5.319,0-10.14-3.147-12.282-8.017c-1.669-3.792-6.096-5.513-9.886-3.845
	c-3.791,1.668-5.513,6.094-3.845,9.885c4.537,10.313,14.747,16.977,26.013,16.977c11.264,0,21.474-6.663,26.012-16.974
	C283.681,216.73,281.96,212.304,278.169,210.636z"/>
<g>
</g>
<g>
</g>
<g>
</g>
<g>
</g>
<g>
</g>
<g>
</g>
<g>
</g>
<g>
</g>
<g>
</g>
<g>
</g>
<g>
</g>
<g>
</g>
<g>
</g>
<g>
</g>
<g>
</g>
</svg>
