<svg id="圖層_1" data-name="圖層 1" xmlns="http://www.w3.org/2000/svg" viewBox="0 0 121.57 109.16"><defs><style>.cls-1{fill:none;stroke:#bcc0c4;stroke-miterlimit:10;stroke-width:2px;}.cls-2{fill:#ffd46a;}.cls-3{fill:#4cc7bb;}.cls-4{fill:#1773ce;}.cls-5{fill:#fff;}.cls-6{fill:#fdfaf3;}.cls-7{fill:#b0e2f1;}</style></defs><title>icon_home-01</title><path class="cls-1" d="M68.38,11.29H55.27a7.08,7.08,0,0,0-5.92-3.86,6.72,6.72,0,0,0-2.39.5A10.58,10.58,0,0,0,37.18,1C31.42,1,26.75,7.49,26.74,11.29H11.4"/><path class="cls-1" d="M20.9,26.49H7.6"/><path class="cls-1" d="M121.57,20.79h-5.65c-1.32-3.8-4-4.75-7.31-4.35a8.07,8.07,0,0,0-7.09-4c-4.52,0-8.19,2.62-8.23,8.32H85.47"/><path class="cls-1" d="M24.69,26.49h3.8"/><path class="cls-1" d="M72.18,11.29H76"/><path class="cls-1" d="M79.78,11.29h3.8"/><path class="cls-2" d="M104,29H71.14v72.36H104V29ZM83,88.5H77.32a2.43,2.43,0,1,1,0-4.86H83a2.43,2.43,0,1,1,0,4.86Zm0-36H77.32a2.44,2.44,0,1,1,0-4.87H83a2.44,2.44,0,1,1,0,4.87Zm0-12H77.32a2.44,2.44,0,1,1,0-4.87H83a2.44,2.44,0,1,1,0,4.87ZM97.78,88.5H92.1a2.43,2.43,0,1,1,0-4.86h5.68a2.43,2.43,0,1,1,0,4.86Zm0-36H92.1a2.44,2.44,0,1,1,0-4.87h5.68a2.44,2.44,0,1,1,0,4.87Zm0-12H92.1a2.44,2.44,0,1,1,0-4.87h5.68a2.44,2.44,0,1,1,0,4.87Z"/><path class="cls-3" d="M37.21,91a2.43,2.43,0,0,1,0,3.44l-6.89,6.9H42.89l7.25-7.26a2.44,2.44,0,0,1,3.44,3.45l-3.81,3.81H60V55.29H27.16V77.81l3.49-3.48a2.43,2.43,0,1,1,3.44,3.44L27.16,84.7V97.61L33.77,91A2.43,2.43,0,0,1,37.21,91ZM48.28,59.6H54a2.44,2.44,0,1,1,0,4.87H48.28a2.44,2.44,0,1,1,0-4.87Zm0,12H54a2.43,2.43,0,1,1,0,4.86H48.28a2.43,2.43,0,1,1,0-4.86Zm0,12H54a2.44,2.44,0,1,1,0,4.87H48.28a2.44,2.44,0,1,1,0-4.87ZM33.5,64.47a2.44,2.44,0,1,1,0-4.87h5.68a2.44,2.44,0,1,1,0,4.87Z"/><path class="cls-4" d="M112.59,104.59H15.14a2.44,2.44,0,0,1,0-4.87H20V82.08h0V51.24a2.43,2.43,0,0,1,2.43-2.44H60.13a2.44,2.44,0,0,1,2.44,2.44V99.72h2.51V24.92a2.43,2.43,0,0,1,2.43-2.43h37.68a2.43,2.43,0,0,1,2.44,2.43v74.8h5a2.44,2.44,0,1,1,0,4.87ZM70,99.72h32.81V27.36H70Zm-22.45,0H57.7v-46H24.88V76.19l3.49-3.48a2.43,2.43,0,0,1,3.44,3.44l-6.93,6.93V96l6.61-6.61a2.44,2.44,0,1,1,3.44,3.45L28,99.72H40.61l7.26-7.25a2.43,2.43,0,1,1,3.44,3.44Zm4.19-24.85H46A2.44,2.44,0,0,1,46,70h5.69a2.44,2.44,0,0,1,0,4.87Zm0-12H46A2.44,2.44,0,0,1,46,58h5.69a2.44,2.44,0,0,1,0,4.87Zm-14.79,0H31.22a2.44,2.44,0,0,1,0-4.87h5.69a2.44,2.44,0,1,1,0,4.87Zm59.69-12H90.9a2.44,2.44,0,0,1,0-4.87h5.69a2.44,2.44,0,0,1,0,4.87Zm-14.79,0H76.12a2.44,2.44,0,0,1,0-4.87H81.8a2.44,2.44,0,1,1,0,4.87Zm14.79-12H90.9a2.44,2.44,0,0,1,0-4.87h5.69a2.44,2.44,0,0,1,0,4.87Zm-14.79,0H76.12a2.44,2.44,0,0,1,0-4.87H81.8a2.44,2.44,0,1,1,0,4.87Z"/><path class="cls-4" d="M118.56,66.7A19.46,19.46,0,1,0,91.24,84.5l7.66,16,7.55-15.77A19.46,19.46,0,0,0,118.56,66.7Z"/><path class="cls-4" d="M98.9,101.59a1.1,1.1,0,0,1-1-.63L90.42,85.34a20.55,20.55,0,1,1,16.84.24L99.89,101A1.09,1.09,0,0,1,98.9,101.59Zm.21-53.24a18.35,18.35,0,0,0-7.42,35.14,1.09,1.09,0,0,1,.55.53L98.9,97.93l6.55-13.69a1.13,1.13,0,0,1,.58-.54,18.36,18.36,0,0,0-6.92-35.35Z"/><circle class="cls-5" cx="99.11" cy="66.7" r="8.01"/><circle class="cls-6" cx="99.11" cy="66.7" r="9.11"/><circle class="cls-7" cx="99.11" cy="66.7" r="6.91"/><path class="cls-5" d="M85.44,72.64a1.09,1.09,0,0,1-1-.74,15.6,15.6,0,0,1,3.9-16.44,1.1,1.1,0,1,1,1.53,1.59,13.42,13.42,0,0,0-3.35,14.12,1.12,1.12,0,0,1-.67,1.41A1.24,1.24,0,0,1,85.44,72.64Z"/><path class="cls-5" d="M94.28,54.14A1.11,1.11,0,0,1,93.91,52a15.49,15.49,0,0,1,5.2-.89,1.11,1.11,0,0,1,0,2.21,13.5,13.5,0,0,0-4.47.76A.92.92,0,0,1,94.28,54.14Z"/></svg>