<?xml version="1.0"?>
<svg xmlns="http://www.w3.org/2000/svg" xmlns:xlink="http://www.w3.org/1999/xlink" version="1.1" id="Capa_1" x="0px" y="0px" viewBox="0 0 512 512" style="enable-background:new 0 0 512 512;" xml:space="preserve" width="512px" height="512px" class=""><g><g>
	<g>
		<g>
			<path d="M259.033,330.881c0,18.147,14.765,32.912,32.912,32.912h80.594c18.147,0,32.912-14.765,32.912-32.912     s-14.765-32.912-32.912-32.912h-80.594C273.798,297.969,259.033,312.734,259.033,330.881z M390.451,330.881     c0,9.877-8.035,17.912-17.912,17.912h-80.594c-9.877,0-17.912-8.035-17.912-17.912s8.035-17.912,17.912-17.912h80.594     C382.416,312.969,390.451,321.005,390.451,330.881z" data-original="#000000" class="active-path" data-old_color="#000000" fill="#194C80"/>
			<path d="M366.73,258.315c-3.706-1.855-8.21-0.351-10.063,3.353c-1.205,2.409-3.423,2.67-4.319,2.67     c-0.897,0-3.115-0.261-4.32-2.669c-3.38-6.761-10.175-10.961-17.734-10.962c0,0,0,0-0.001,0c-7.559,0-14.354,4.2-17.735,10.961     c-1.205,2.409-3.423,2.67-4.319,2.67c-0.898,0-3.115-0.261-4.32-2.669c-3.38-6.761-10.175-10.961-17.734-10.962c0,0,0,0-0.001,0     c-7.559,0-14.354,4.2-17.735,10.961c-1.853,3.705-0.352,8.21,3.354,10.063c3.706,1.854,8.21,0.351,10.063-3.353     c1.205-2.409,3.422-2.67,4.319-2.67h0.001c0.897,0,3.113,0.261,4.318,2.67c3.381,6.761,10.177,10.961,17.736,10.961     c7.559,0,14.354-4.2,17.735-10.961c1.205-2.409,3.422-2.67,4.319-2.67h0.001c0.896,0,3.113,0.261,4.318,2.67     c3.381,6.761,10.177,10.961,17.736,10.961c7.559,0,14.354-4.2,17.735-10.961C371.936,264.672,370.435,260.167,366.73,258.315z" data-original="#000000" class="active-path" data-old_color="#000000" fill="#194C80"/>
			<path d="M282.021,160.576c1.668-3.791-0.053-8.217-3.845-9.886c-3.791-1.665-8.217,0.054-9.886,3.845     c-2.143,4.872-6.968,8.02-12.29,8.02s-10.148-3.149-12.291-8.022c-1.669-3.791-6.095-5.51-9.886-3.845     c-3.791,1.668-5.513,6.095-3.845,9.886c4.539,10.315,14.753,16.981,26.021,16.981     C267.268,177.557,277.481,170.891,282.021,160.576z" data-original="#000000" class="active-path" data-old_color="#000000" fill="#194C80"/>
			<path d="M490.995,71.39H21.005C9.423,71.39,0,80.812,0,92.396v228.814c0,4.143,3.357,7.5,7.5,7.5s7.5-3.357,7.5-7.5V92.396     c0-3.312,2.693-6.005,6.005-6.005h469.99c3.312,0,6.005,2.693,6.005,6.005v327.209c0,3.311-2.693,6.005-6.005,6.005H21.005     c-3.312,0-6.005-2.693-6.005-6.005v-63.319c0-4.143-3.357-7.5-7.5-7.5s-7.5,3.357-7.5,7.5v63.319     c0,11.582,9.423,21.005,21.005,21.005h469.99c11.582,0,21.005-9.423,21.005-21.005V92.396     C512,80.812,502.577,71.39,490.995,71.39z" data-original="#000000" class="active-path" data-old_color="#000000" fill="#194C80"/>
			<path d="M147.96,258.394c-4.795,0-9.853-2.455-15.709-5.299c-8.177-3.97-17.444-8.469-29.765-8.469     c-11.331,0-18.41,3.926-24.656,7.391c-6.17,3.422-11.498,6.377-21.651,6.377c-4.143,0-7.5,3.358-7.5,7.5     c0,4.143,3.357,7.5,7.5,7.5c14.034,0,22.292-4.58,28.927-8.26c5.549-3.077,9.931-5.508,17.381-5.508     c8.872,0,15.838,3.382,23.214,6.963c6.891,3.346,14.016,6.805,22.26,6.805c4.142,0,7.5-3.357,7.5-7.5     C155.46,261.752,152.102,258.394,147.96,258.394z" data-original="#000000" class="active-path" data-old_color="#000000" fill="#194C80"/>
			<path d="M149.395,296.151c-18.514-5.093-27.143-1.75-34.756,1.198c-4.335,1.679-8.078,3.129-14.204,3.129     c-4.143,0-7.5,3.357-7.5,7.5s3.357,7.5,7.5,7.5c8.93,0,14.609-2.2,19.621-4.141c6.495-2.515,11.624-4.502,25.36-0.724     c3.995,1.094,8.121-1.249,9.221-5.242C155.736,301.38,153.39,297.25,149.395,296.151z" data-original="#000000" class="active-path" data-old_color="#000000" fill="#194C80"/>
			<path d="M357.271,147.216v-10.339c0-4.143-3.357-7.5-7.5-7.5s-7.5,3.357-7.5,7.5v10.339c0,4.143,3.357,7.5,7.5,7.5     C353.913,154.716,357.271,151.357,357.271,147.216z" data-original="#000000" class="active-path" data-old_color="#000000" fill="#194C80"/>
			<path d="M111.464,172.57c-7.56,0-14.355,4.201-17.736,10.962c-1.205,2.409-3.422,2.67-4.32,2.67     c-0.897,0-3.114-0.261-4.318-2.669c-3.381-6.762-10.177-10.963-17.736-10.963c-7.56,0-14.355,4.201-17.735,10.963     c-1.853,3.705-0.351,8.21,3.354,10.063c3.703,1.852,8.21,0.349,10.062-3.355c1.205-2.409,3.422-2.67,4.319-2.67     c0.897,0,3.114,0.261,4.319,2.671c3.381,6.761,10.177,10.961,17.735,10.961c7.56,0,14.355-4.2,17.736-10.961     c1.205-2.41,3.423-2.671,4.32-2.671c0.896,0.001,3.113,0.261,4.317,2.67c1.852,3.705,6.357,5.207,10.063,3.355     c3.705-1.853,5.207-6.357,3.354-10.063C125.818,176.771,119.023,172.57,111.464,172.57z" data-original="#000000" class="active-path" data-old_color="#000000" fill="#194C80"/>
			<path d="M154.73,136.877v10.339c0,4.143,3.357,7.5,7.5,7.5s7.5-3.357,7.5-7.5v-10.339c0-4.143-3.357-7.5-7.5-7.5     C158.087,129.377,154.73,132.734,154.73,136.877z" data-original="#000000" class="active-path" data-old_color="#000000" fill="#194C80"/>
			<path d="M409.206,106.721c0-4.143-3.357-7.5-7.5-7.5H45.135c-9.541,0-17.304,7.763-17.304,17.304v278.951     c0,9.541,7.763,17.304,17.304,17.304h421.73c9.541,0,17.304-7.763,17.304-17.304V116.523c0-9.541-7.763-17.304-17.304-17.304     H434.47c-4.143,0-7.5,3.357-7.5,7.5c0,4.143,3.357,7.5,7.5,7.5h32.395c1.271,0,2.304,1.033,2.304,2.304v51.41h-80.862     c-19.43,0-35.237,15.807-35.237,35.236c0,17.922,14.581,32.503,32.503,32.503c6.264,0,11.36,5.097,11.36,11.36     c0,14.535,11.825,26.36,26.359,26.36h45.877v73.217c-10.707,1.361-20.525,5.589-28.664,11.897L431,349.003     c-2.93-2.928-7.678-2.928-10.607,0c-2.929,2.93-2.929,7.678,0,10.608l9.505,9.505c-6.308,8.139-10.536,17.957-11.897,28.664     H45.135c-1.271,0-2.304-1.033-2.304-2.304v-9.966h71.742c15.49,0,28.092-10.805,28.092-24.086     c0-18.607,19.608-33.746,43.711-33.746h11.915c26.845,0,48.685-18.245,48.685-40.671c0-6.074-1.555-11.917-4.621-17.365     c-2.031-3.609-6.606-4.889-10.215-2.857c-3.609,2.032-4.889,6.605-2.857,10.215c1.787,3.175,2.693,6.542,2.693,10.008     c0,14.155-15.111,25.671-33.685,25.671h-11.915c-32.373,0-58.711,21.867-58.711,48.746c0,4.925-5.995,9.086-13.092,9.086H42.831     V228.164h99.591c7.097,0,13.092,4.161,13.092,9.086c0,13.28,12.602,24.085,28.093,24.085h14.685     c3.921,0,7.763,0.515,11.419,1.529c0.671,0.187,1.346,0.275,2.01,0.275c3.286,0,6.302-2.176,7.223-5.496     c1.108-3.991-1.229-8.125-5.221-9.232c-4.963-1.378-10.154-2.076-15.431-2.076h-14.685c-7.097,0-13.093-4.16-13.093-9.085     c0-13.281-12.602-24.086-28.092-24.086H42.831v-96.64c0-1.271,1.033-2.304,2.304-2.304h356.571     C405.849,114.221,409.206,110.862,409.206,106.721z M423.292,258.396v-0.002c-6.264,0-11.359-5.097-11.359-11.36     c0-14.535-11.825-26.36-26.36-26.36c-9.651,0-17.503-7.852-17.503-17.503c0-11.158,9.078-20.236,20.237-20.236h80.862v18.844     c-1.322-1.164-3.051-1.876-4.951-1.876c-4.76,0-6.303-0.845-8.858-2.243c-3.506-1.918-7.868-4.306-17.427-4.306     c-11.303,0-16.072,2.581-19.904,4.654c-3.02,1.635-5.406,2.926-13.309,2.926c-4.143,0-7.5,3.357-7.5,7.5s3.357,7.5,7.5,7.5     c11.701,0,16.551-2.624,20.447-4.733c3.055-1.652,5.261-2.847,12.766-2.847c5.723,0,7.611,1.033,10.226,2.464     c3.325,1.82,7.464,4.085,16.06,4.085c1.9,0,3.63-0.712,4.951-1.876v45.369H423.292z M440.613,379.831l3.539,3.539     c1.465,1.464,3.385,2.196,5.304,2.196c1.919,0,3.839-0.732,5.304-2.196c2.929-2.93,2.929-7.678,0-10.607l-3.539-3.539     c5.256-3.72,11.353-6.32,17.949-7.454v33.706c0,1.271-1.033,2.304-2.304,2.304H433.16     C434.293,391.182,436.893,385.086,440.613,379.831z" data-original="#000000" class="active-path" data-old_color="#000000" fill="#194C80"/>
		</g>
	</g>
</g></g> </svg>
