<svg id="圖層_1" data-name="圖層 1" xmlns="http://www.w3.org/2000/svg" viewBox="0 0 175.26 47.76"><defs><style>.cls-1,.cls-2{fill:#90cdf4;}.cls-2{font-size:21px;font-family:NotoSans-SemiCondensedSemiBold, Noto Sans;font-weight:600;letter-spacing:0.19em;}.cls-3{letter-spacing:0.18em;}.cls-4{letter-spacing:0.17em;}.cls-5{letter-spacing:0.19em;}.cls-6{letter-spacing:0.2em;}.cls-7{letter-spacing:0.18em;}.cls-8{letter-spacing:0.19em;}.cls-9{letter-spacing:0.19em;}</style></defs><title>logo_blue</title><path class="cls-1" d="M40.76,18.63a19,19,0,0,0,1-3.66c.31-1.55,1.75-2.66,2.17-4.17a4.15,4.15,0,0,0-1.51-4.21A5.89,5.89,0,0,0,37.93,5.5a10.57,10.57,0,0,0-4.35,1.78,12.79,12.79,0,0,0-3,2.71,8.68,8.68,0,0,0-1,1.73,2.31,2.31,0,0,0-.3.75c0,.32.49.21.75.27a1.22,1.22,0,0,1,.73.43,1.2,1.2,0,0,1,.16.64c0,.17-.23.85-.13.92s.36-.05.44-.06l.56-.07a14.33,14.33,0,0,1,2.17-.09A8.5,8.5,0,0,1,39,16.05,5.49,5.49,0,0,1,40.76,18.63Z"/><path class="cls-1" d="M49.56,8.25l-5.21-.66A2.1,2.1,0,0,1,45,8.87a3.7,3.7,0,0,1-.13,1.44C45.47,10,49.35,8.27,49.56,8.25Z"/><path class="cls-1" d="M20.31,14.88a8.19,8.19,0,0,1-2.64-2.63,52.8,52.8,0,0,1-3.41-7.46l-1,3.93a11.45,11.45,0,0,0-.35,3.07l.07.14C14.68,14.79,17.89,16.05,20.31,14.88Z"/><text/><path class="cls-1" d="M39.32,18.14a3.81,3.81,0,0,0-2.81-2.28,19.87,19.87,0,0,0-2.6-.24,7.86,7.86,0,0,0-5.48,1.81A43.11,43.11,0,0,0,21,26.08,27.17,27.17,0,0,0,16.76,36.7c-.5,3.68-1.07,7.29-.43,11,1.43-4.14,3-8.43,5.84-11.59a21.46,21.46,0,0,1,6.62-4.68c1.83-.89,3.71-1.62,5.48-2.63s3.85-2.43,4.77-4.39A8.41,8.41,0,0,0,39.32,18.14Z"/><path class="cls-1" d="M26.65,16l.49-.37h0a4.7,4.7,0,0,0-4.46-.52l-.32.13c-.18.09-.37.17-.55.27a7.15,7.15,0,0,1-3.46.79,6.15,6.15,0,0,1-1-.12,8.2,8.2,0,0,1-5.8-4.55A53.84,53.84,0,0,1,9,3.81L7.54,7.59A11.07,11.07,0,0,0,8.91,18.17,14.9,14.9,0,0,0,11.64,21a59.87,59.87,0,0,0,6.77,4c.09-.12.17-.25.25-.38A43,43,0,0,1,26.65,16Z"/><text/><text class="cls-2" transform="translate(47.77 35.77) scale(1 1.1)">F<tspan class="cls-3" x="14.15" y="0">I</tspan><tspan class="cls-4" x="25.17" y="0">N</tspan><tspan class="cls-5" x="43.86" y="0">D</tspan><tspan class="cls-6" x="61.79" y="0"> </tspan><tspan class="cls-7" x="70.78" y="0">T</tspan><tspan class="cls-8" x="85.32" y="0">R</tspan><tspan class="cls-3" x="101.74" y="0">I</tspan><tspan class="cls-9" x="112.76" y="0">P</tspan></text></svg>