<svg id="圖層_1" data-name="圖層 1" xmlns="http://www.w3.org/2000/svg" viewBox="0 0 120.51 60"><defs><style>.cls-1{font-size:15.74px;font-family:NotoSans-SemiCondensedSemiBold, Noto Sans;font-weight:600;}.cls-1,.cls-2{fill:none;}.cls-2{stroke:#005792;stroke-linecap:round;stroke-linejoin:round;stroke-width:0.75px;}.cls-3{fill:#005792;}.cls-4{fill:#0c355f;}</style></defs><title>logo_w</title><text class="cls-1"><tspan x="45.15" y="39.2">FIND TRIP</tspan></text><path class="cls-2" d="M18.81,12.53a6.35,6.35,0,0,1,6.35-6.35h8a6.33,6.33,0,0,1,5.68,3.53"/><line class="cls-2" x1="18.81" y1="34.77" x2="18.81" y2="32.69"/><path class="cls-2" d="M39.54,36.64V50a6.35,6.35,0,0,1-6.35,6.34h-8A6.34,6.34,0,0,1,19,51.58"/><path class="cls-3" d="M41.86,25.7a19,19,0,0,0,1-3.66c.32-1.54,1.75-2.66,2.17-4.17a4.14,4.14,0,0,0-1.5-4.21A5.91,5.91,0,0,0,39,12.57a10.62,10.62,0,0,0-4.35,1.78,12.55,12.55,0,0,0-3,2.71,8.07,8.07,0,0,0-1.05,1.73,2.34,2.34,0,0,0-.31.75c0,.32.5.21.75.27a1.19,1.19,0,0,1,.73.43,1.12,1.12,0,0,1,.17.64c0,.17-.23.85-.14.92s.36-.05.44-.06l.56-.07A15.9,15.9,0,0,1,35,21.58a8.52,8.52,0,0,1,5.06,1.54A5.47,5.47,0,0,1,41.86,25.7Z"/><path class="cls-4" d="M50.67,15.32l-5.22-.66a2.11,2.11,0,0,1,.61,1.28,3.9,3.9,0,0,1-.13,1.44C46.57,17.1,50.45,15.34,50.67,15.32Z"/><path class="cls-3" d="M21.42,22a8.22,8.22,0,0,1-2.64-2.64,54,54,0,0,1-3.42-7.46l-1,3.93A11.47,11.47,0,0,0,14,18.87l.08.13C15.79,21.86,19,23.12,21.42,22Z"/><text/><path class="cls-3" d="M40.43,25.21a3.84,3.84,0,0,0-2.82-2.28,19.87,19.87,0,0,0-2.6-.24,7.82,7.82,0,0,0-5.47,1.81,42.84,42.84,0,0,0-7.49,8.65,27.32,27.32,0,0,0-4.19,10.62c-.5,3.68-1.06,7.29-.43,11,1.44-4.14,3-8.43,5.85-11.59a21.22,21.22,0,0,1,6.62-4.68c1.82-.89,3.7-1.62,5.48-2.63s3.85-2.43,4.77-4.39A8.46,8.46,0,0,0,40.43,25.21Z"/><path class="cls-3" d="M27.76,23.07a5.6,5.6,0,0,1,.49-.36l0,0a4.71,4.71,0,0,0-4.46-.52l-.32.13c-.19.09-.37.17-.55.27a7.06,7.06,0,0,1-3.46.79,6.14,6.14,0,0,1-1-.12,8.24,8.24,0,0,1-5.8-4.55,52.61,52.61,0,0,1-2.51-7.81L8.65,14.66A11.09,11.09,0,0,0,10,25.24,15.21,15.21,0,0,0,12.74,28a60,60,0,0,0,6.78,4l.25-.38A42.39,42.39,0,0,1,27.76,23.07Z"/></svg>