<svg id="圖層_1" data-name="圖層 1" xmlns="http://www.w3.org/2000/svg" viewBox="0 0 48.43 65.13"><defs><style>.cls-1,.cls-4{fill:none;stroke-linecap:round;stroke-linejoin:round;}.cls-1{stroke:#b2b2b2;}.cls-2{fill:#005792;}.cls-3{fill:#0c355f;}.cls-4{stroke:#d3d1d1;}</style></defs><title>logo_t</title><path class="cls-1" d="M14.24,12.72a6.34,6.34,0,0,1,6.34-6.35h8A6.37,6.37,0,0,1,34.3,9.89"/><line class="cls-1" x1="14.24" y1="34.96" x2="14.24" y2="32.87"/><path class="cls-1" d="M35,36.83V50.16a6.35,6.35,0,0,1-6.35,6.35h-8a6.34,6.34,0,0,1-6.14-4.74"/><path class="cls-2" d="M37.28,25.89a17.77,17.77,0,0,0,1-3.66c.31-1.55,1.75-2.66,2.17-4.17a4.17,4.17,0,0,0-1.51-4.22,5.93,5.93,0,0,0-4.48-1.08,10.57,10.57,0,0,0-4.35,1.78,12.21,12.21,0,0,0-3,2.71A8.68,8.68,0,0,0,26,19a2.35,2.35,0,0,0-.3.74c0,.32.49.21.75.28a1,1,0,0,1,.89,1.07c0,.17-.23.85-.14.92s.36,0,.45-.06l.56-.08a17.5,17.5,0,0,1,2.17-.09,8.64,8.64,0,0,1,5.06,1.54A5.48,5.48,0,0,1,37.28,25.89Z"/><path class="cls-3" d="M46.09,15.51l-5.21-.66a2.1,2.1,0,0,1,.6,1.28,3.9,3.9,0,0,1-.13,1.44C42,17.29,45.88,15.53,46.09,15.51Z"/><path class="cls-2" d="M16.84,22.14a8.29,8.29,0,0,1-2.64-2.63,53.32,53.32,0,0,1-3.41-7.46L9.79,16a11.56,11.56,0,0,0-.35,3.08c0,.05.05.09.07.13C11.21,22.05,14.42,23.31,16.84,22.14Z"/><text/><path class="cls-2" d="M35.85,25.4A3.81,3.81,0,0,0,33,23.12a18.4,18.4,0,0,0-2.6-.24A7.86,7.86,0,0,0,25,24.68a43.45,43.45,0,0,0-7.48,8.66A27.11,27.11,0,0,0,13.29,44c-.5,3.68-1.07,7.29-.43,11,1.43-4.14,3-8.43,5.84-11.59a21.46,21.46,0,0,1,6.62-4.68C27.15,37.78,29,37,30.8,36s3.85-2.43,4.77-4.39A8.41,8.41,0,0,0,35.85,25.4Z"/><path class="cls-4" d="M23.18,23.26l.49-.37h0a4.74,4.74,0,0,0-4.46-.53l-.32.14-.55.26a7.07,7.07,0,0,1-3.46.8,7.44,7.44,0,0,1-1-.12A8.2,8.2,0,0,1,8,18.88a53.84,53.84,0,0,1-2.52-7.81L4.07,14.85A11.07,11.07,0,0,0,5.44,25.43a14.9,14.9,0,0,0,2.73,2.8,61.41,61.41,0,0,0,6.77,4c.09-.12.17-.25.25-.38A43,43,0,0,1,23.18,23.26Z"/></svg>