<?xml version="1.0" encoding="iso-8859-1"?>
<!-- Generator: Adobe Illustrator 19.0.0, SVG Export Plug-In . SVG Version: 6.00 Build 0)  -->
<svg version="1.1" id="Capa_1" xmlns="http://www.w3.org/2000/svg" xmlns:xlink="http://www.w3.org/1999/xlink" x="0px" y="0px"
	 viewBox="0 0 512 512" style="enable-background:new 0 0 512 512;" xml:space="preserve">
<g>
	<g>
		<g>
			<path d="M468.913,167.757H326.827c0.76-5.262,1.153-10.318,1.153-15.149c0-27.908-8.253-54.886-23.868-78.018
				c-2.316-3.433-6.979-4.338-10.412-2.021c-3.433,2.318-4.338,6.979-2.021,10.413c13.936,20.644,21.301,44.719,21.301,69.625
				c0,6.595-0.838,13.538-2.357,20.724c-0.073,0.275-0.13,0.555-0.172,0.841c-2.061,9.443-5.314,19.305-9.441,29.364
				c-0.193,0.378-0.36,0.772-0.487,1.185c-4.392,10.544-9.74,21.292-15.703,31.999c-0.051,0.089-0.102,0.179-0.15,0.27
				c-32.139,57.6-81.981,113.859-96.38,129.613c-3.906-4.272-9.166-10.136-15.377-17.333c-0.009-0.011-0.018-0.021-0.027-0.031
				c-3.8-4.403-7.955-9.303-12.376-14.646c-2.642-3.192-7.369-3.636-10.559-0.997c-3.191,2.642-3.638,7.369-0.997,10.559
				c0.665,0.803,1.322,1.593,1.974,2.377h-26.774v-33.743c1.856,2.461,3.731,4.93,5.65,7.417c1.477,1.915,3.698,2.918,5.942,2.918
				c1.601,0,3.213-0.51,4.577-1.563c3.279-2.53,3.886-7.24,1.355-10.52c-6.771-8.774-12.973-17.159-18.664-25.178
				c-0.18-0.289-0.373-0.568-0.59-0.829c-13.819-19.532-24.551-36.852-32.834-52.177c-0.213-0.532-0.483-1.033-0.806-1.497
				c-5.221-9.766-9.435-18.705-12.814-26.88c-0.093-0.269-0.202-0.53-0.324-0.784c-9.218-22.523-12.048-39.163-12.048-51.091
				c0-68.45,55.928-124.642,124.69-125.289c30.984,0.293,60.693,11.964,83.662,32.866c3.063,2.786,7.807,2.564,10.595-0.499
				c2.788-3.064,2.564-7.807-0.499-10.595c-25.716-23.403-58.989-36.463-93.691-36.773h-0.134
				c-76.988,0.688-139.623,63.62-139.623,140.289c0,4.82,0.405,9.88,1.169,15.149h-6.682C19.329,167.757,0,187.085,0,210.845
				v245.753c0,23.759,19.329,43.088,43.088,43.088h425.825c23.758,0,43.087-19.329,43.087-43.088V210.845
				C512,187.085,492.671,167.757,468.913,167.757z M312.661,214.434h39.501v18.519h-48.304
				C307.126,226.598,310.054,220.428,312.661,214.434z M272.273,285.215c0.742-1.086,1.465-2.162,2.193-3.24h77.697v10.49
				l-92.793,54.067h-30.446v-3.948h-0.001C242.197,326.471,257.622,306.65,272.273,285.215z M210.243,386.099
				c-0.884-3.272-3.852-5.545-7.24-5.545h-8.723c1.751-0.798,3.348-1.938,4.672-3.383c3.845-4.198,9.573-10.564,16.505-18.607
				c1.37,1.8,3.529,2.967,5.966,2.967h39.972c1.326,0,2.63-0.352,3.775-1.02l98.268-57.257c2.307-1.344,3.725-3.811,3.725-6.48
				v-22.301c0-4.143-3.357-7.5-7.5-7.5h-75.394c4.1-6.492,7.915-12.834,11.442-19.022h63.952c4.143,0,7.5-3.357,7.5-7.5v-26.019
				h19.022v62.518c0,2.685,1.435,5.165,3.763,6.503c2.328,1.337,5.193,1.33,7.513-0.022l67.863-39.542v22.016l-75.414,43.942
				c-2.307,1.344-3.725,3.811-3.725,6.48v79.768c0,4.143,3.357,7.5,7.5,7.5h71.639v19.022h-71.639c-4.143,0-7.5,3.357-7.5,7.5v22.89
				h-19.022V336.15c0-2.685-1.436-5.165-3.763-6.503c-2.328-1.338-5.194-1.329-7.513,0.022l-37.491,21.845
				c-2.307,1.344-3.725,3.811-3.725,6.48v95.013h-19.022v-75.188c0-2.685-1.436-5.165-3.763-6.503
				c-2.327-1.338-5.193-1.329-7.513,0.022l-140.166,81.669h-37.785l100.356-58.474C209.707,392.828,211.127,389.37,210.243,386.099z
				 M401.185,263.9v-49.468h59.566c2.521,0,4.572,2.051,4.572,4.572v7.524L401.185,263.9z M465.323,437.617v0.001v10.817
				c0,2.521-2.051,4.572-4.572,4.572h-59.566v-15.39H465.323z M352.162,349.2v103.808h-22.491v-90.702L352.162,349.2z
				 M280.648,390.869v62.139H174.002L280.648,390.869z M76.627,453.008H51.249c-2.521,0-4.573-2.051-4.573-4.572v-52.882h128.558
				L76.627,453.008z M80.877,247.952c8.013,14.07,17.471,28.864,28.278,44.252v61.828c0,4.143,3.357,7.5,7.5,7.5h47.037
				c5.611,6.454,10.365,11.737,13.939,15.64c1.324,1.445,2.921,2.584,4.672,3.383H46.676v-19.023h35.956c4.143,0,7.5-3.357,7.5-7.5
				v-79.558c0-4.143-3.357-7.5-7.5-7.5H46.676v-19.022H80.877z M46.676,346.531v-64.558h28.456v64.558H46.676z M63.938,214.434
				L63.938,214.434c2.605,5.995,5.547,12.172,8.809,18.518H46.676v-13.946c0-2.521,2.052-4.572,4.573-4.572H63.938z M497,456.598
				c0,15.487-12.6,28.088-28.087,28.088H43.088C27.601,484.685,15,472.085,15,456.598V210.845c0-15.487,12.601-28.088,28.088-28.088
				h9.733c1.382,5.368,3.108,10.93,5.168,16.677h-6.74c-10.793,0-19.573,8.78-19.573,19.572v229.431
				c0,10.792,8.78,19.572,19.573,19.572h409.502c10.792,0,19.572-8.78,19.572-19.572v-66.505c0-4.143-3.357-7.5-7.5-7.5
				s-7.5,3.357-7.5,7.5v6.665h-64.139v-67.958l64.139-37.372v67.569c0,4.143,3.357,7.5,7.5,7.5s7.5-3.357,7.5-7.5v-131.83
				c0-10.792-8.78-19.572-19.572-19.572H318.632c2.061-5.748,3.776-11.306,5.157-16.677h145.124
				c15.487,0,28.087,12.601,28.087,28.088V456.598z"/>
			<path d="M215.773,90.359c-10.253,0-20.004,3.244-28.086,9.25c-8.083-6.006-17.833-9.25-28.086-9.25h-0.085
				c-12.645,0.022-24.516,4.977-33.426,13.949c-18.284,18.41-18.096,48.452,0.421,66.971l47.075,47.074
				c3.767,3.766,8.774,5.84,14.101,5.84c5.326,0,10.334-2.074,14.1-5.84l47.075-47.075c18.516-18.517,18.705-48.56,0.422-66.97
				c-8.911-8.974-20.783-13.928-33.428-13.949C215.856,90.36,215.773,90.36,215.773,90.359z M238.254,160.673l-47.075,47.075
				c-0.933,0.933-2.173,1.446-3.492,1.446c-1.319,0-2.56-0.514-3.493-1.447l-47.075-47.073
				c-12.688-12.689-12.861-33.232-0.386-45.794c6.081-6.124,14.182-9.504,22.81-9.52h0.058c8.607,0,16.696,3.351,22.783,9.438
				c1.407,1.406,3.314,2.196,5.304,2.196c1.989,0,3.896-0.79,5.304-2.197c6.087-6.087,14.176-9.438,22.782-9.438h0.058
				c8.628,0.015,16.729,3.396,22.811,9.52C251.115,127.441,250.942,147.983,238.254,160.673z"/>
		</g>
	</g>
</g>
<g>
</g>
<g>
</g>
<g>
</g>
<g>
</g>
<g>
</g>
<g>
</g>
<g>
</g>
<g>
</g>
<g>
</g>
<g>
</g>
<g>
</g>
<g>
</g>
<g>
</g>
<g>
</g>
<g>
</g>
</svg>
